<?xml version="1.0" encoding="UTF-8" standalone="no"?>
<svg
   xmlns:dc="http://purl.org/dc/elements/1.1/"
   xmlns:cc="http://creativecommons.org/ns#"
   xmlns:rdf="http://www.w3.org/1999/02/22-rdf-syntax-ns#"
   xmlns:svg="http://www.w3.org/2000/svg"
   xmlns="http://www.w3.org/2000/svg"
   xmlns:sodipodi="http://sodipodi.sourceforge.net/DTD/sodipodi-0.dtd"
   xmlns:inkscape="http://www.inkscape.org/namespaces/inkscape"
   width="32"
   height="32"
   viewBox="0 0 8.4666665 8.4666669"
   version="1.1"
   id="svg8"
   inkscape:export-filename="/home/ninewise/zeus.png"
   inkscape:export-xdpi="96"
   inkscape:export-ydpi="96"
   inkscape:version="1.0.1 (unknown)"
   sodipodi:docname="zeus.svg">
  <defs
     id="defs2" />
  <sodipodi:namedview
     id="base"
     pagecolor="#ffffff"
     bordercolor="#666666"
     borderopacity="1.0"
     inkscape:pageopacity="0.0"
     inkscape:pageshadow="2"
     inkscape:zoom="22.4"
     inkscape:cx="11.273885"
     inkscape:cy="16.414226"
     inkscape:document-units="px"
     inkscape:current-layer="layer1"
     inkscape:document-rotation="0"
     showgrid="false"
     units="px"
     inkscape:window-width="1912"
     inkscape:window-height="1072"
     inkscape:window-x="1"
     inkscape:window-y="1"
     inkscape:window-maximized="0" />
  <metadata
     id="metadata5">
    <rdf:RDF>
      <cc:Work
         rdf:about="">
        <dc:format>image/svg+xml</dc:format>
        <dc:type
           rdf:resource="http://purl.org/dc/dcmitype/StillImage" />
        <dc:title></dc:title>
      </cc:Work>
    </rdf:RDF>
  </metadata>
  <g
     inkscape:label="Layer 1"
     inkscape:groupmode="layer"
     id="layer1">
    <path
       id="rect78"
       style="fill:#ff7f00;fill-opacity:1;stroke:#000000;stroke-width:0.410369;stroke-linecap:round;stroke-linejoin:bevel;stroke-miterlimit:4;stroke-dasharray:none;stroke-opacity:1"
       d="M 0.44407791,1.2962515 H 8.0452427 V 7.3045318 H 0.44407791 Z" />
    <path
       style="fill:#000000;stroke-width:0.00661243"
       d="m 1.3134596,4.5126889 0.00667,-0.019704 0.1063408,-0.1273558 C 1.4849534,4.2955828 1.7847448,3.9367665 2.0926691,3.5682588 2.4005934,3.1997511 2.6525315,2.8954963 2.6525315,2.8921369 c 0,-0.00369 -0.259944,-0.00611 -0.6579376,-0.00611 H 1.3366562 V 2.6413686 2.3967084 h 1.0646026 1.0646027 v 0.1921714 0.1921713 l -0.115423,0.136541 c -0.063483,0.075098 -0.114556,0.1374084 -0.113496,0.1384682 0.00106,0.00106 0.025938,-0.012503 0.055284,-0.030142 0.060815,-0.036551 0.1687193,-0.074652 0.2563623,-0.090522 0.093459,-0.016923 0.2499273,-0.020093 0.3395282,-0.00688 0.126689,0.018684 0.2271079,0.055857 0.314975,0.1166001 0.063193,0.043685 0.157377,0.1424974 0.1925716,0.2020344 0.028049,0.047449 0.07529,0.1582358 0.07529,0.1765666 0,0.0057 0.00297,0.012201 0.00661,0.014448 0.00436,0.0027 0.00661,-0.075975 0.00661,-0.2310452 V 2.9719906 h 0.2312508 0.2312498 l -0.0039,0.3851746 c -0.00547,0.5399987 0.00281,0.6290311 0.064441,0.6925373 0.041008,0.042256 0.088982,0.061525 0.1541788,0.06193 0.1149532,7.125e-4 0.2035664,-0.05621 0.2548611,-0.1637162 0.049214,-0.1031447 0.048601,-0.096457 0.051402,-0.5609949 L 5.4701671,2.971991 H 5.7012332 5.932305 l 8.365e-4,0.1934138 c 6.315e-4,0.145989 0.00227,0.1820644 0.0067,0.1471268 0.013364,-0.1055615 0.046889,-0.1786437 0.1107205,-0.2413613 0.0688,-0.0676 0.1619381,-0.1092575 0.3059245,-0.136831 0.086052,-0.016479 0.3644859,-0.016249 0.4751138,3.931e-4 0.084278,0.012678 0.2606434,0.046479 0.2992129,0.057344 l 0.024797,0.00699 V 3.1773757 3.3556895 L 7.1308058,3.3446481 C 7.0846142,3.3240798 6.9608373,3.2814012 6.9011105,3.2654485 6.6891414,3.2088327 6.4791866,3.214323 6.4091977,3.2783121 c -0.036358,0.033241 -0.045579,0.1041376 -0.018729,0.1439996 0.030775,0.04569 0.081965,0.062767 0.2658948,0.088707 0.3821085,0.053889 0.5188939,0.1264111 0.5766808,0.3057512 0.02259,0.070108 0.028587,0.2016489 0.012491,0.2739974 -0.017321,0.077857 -0.04997,0.138777 -0.101638,0.1896509 -0.054876,0.054032 -0.1021829,0.082293 -0.1853136,0.1107073 -0.08737,0.029862 -0.1395092,0.03991 -0.2559331,0.049317 -0.1894504,0.015308 -0.415979,-0.0025 -0.6529784,-0.051326 L 5.9653634,4.3717472 V 4.1935441 c 0,-0.1671232 7.195e-4,-0.1779069 0.011572,-0.1734405 0.1712975,0.0705 0.3095803,0.1032497 0.4900891,0.1160696 0.232432,0.016508 0.3512564,-0.032833 0.351285,-0.145867 C 6.8183293,3.9054588 6.7709051,3.8765431 6.5902389,3.8512504 6.3581901,3.8187643 6.2930124,3.8047389 6.1906512,3.7652642 6.0373762,3.7061551 5.9592526,3.6032368 5.9397427,3.434723 5.9360927,3.403211 5.9337027,3.5729987 5.9331527,3.9026914 L 5.9323011,4.4201148 H 5.7008658 5.4694305 V 4.3049368 4.189759 L 5.3916555,4.266915 C 5.2936072,4.3641833 5.2344894,4.3997491 5.1181711,4.4314454 5.0515225,4.449607 4.8940192,4.4477 4.8250157,4.427896 4.7465524,4.4053769 4.6884332,4.371924 4.6338327,4.3178524 4.5350679,4.2200443 4.4841771,4.0712655 4.4841771,3.8803348 V 3.7985458 H 3.9485696 3.412962 l 9.79e-5,0.014878 c 1.878e-4,0.028624 0.02025,0.1000184 0.039321,0.1399311 0.065952,0.1380258 0.2117044,0.2006467 0.4248932,0.1825503 0.1660922,-0.014099 0.2901773,-0.049044 0.4482306,-0.1262319 0.051599,-0.0252 0.095018,-0.045817 0.096488,-0.045817 0.00147,0 0.00267,0.079855 0.00267,0.1774556 V 4.318767 L 4.3337417,4.349338 C 4.131914,4.417201 3.9598183,4.44672 3.7676782,4.446435 3.6921862,4.4463226 3.6355052,4.441005 3.5137999,4.422619 L 3.4856979,4.418369 V 4.653983 4.8895953 H 2.4012822 1.3168656 l -0.00341,-0.3769064 z m 2.09289,-0.1206308 C 3.2741546,4.3334878 3.220143,4.2999303 3.1562399,4.2366645 3.0948919,4.1759282 3.0602042,4.1267894 3.0226421,4.0474089 2.9715535,3.9394426 2.9504406,3.8343658 2.9502223,3.6869827 c -2.031e-4,-0.1368545 0.017129,-0.229287 0.068974,-0.367839 0.00272,-0.00727 -0.00651,5.94e-5 -0.020507,0.016298 -0.069968,0.081149 -0.8864845,1.0498095 -0.8907855,1.0567686 -0.00391,0.00633 0.1372565,0.00797 0.6549952,0.00762 0.4886195,-3.314e-4 0.6556887,-0.00235 0.6434499,-0.00778 z M 4.0380004,3.4794953 C 4.0203678,3.3398781 3.9327449,3.2485123 3.7987416,3.2300162 c -0.052922,-0.0073 -0.1350759,2.605e-4 -0.1817814,0.016739 -0.088458,0.03121 -0.1570367,0.1074131 -0.1867297,0.2074906 -0.019764,0.06661 -0.053095,0.059965 0.300749,0.059965 h 0.3114052 z m 1.1733439,1.9010762 c -1.139e-4,-0.4000247 -0.00268,-0.7015802 -0.00592,-0.6959592 -0.00499,0.00866 -0.2583806,0.971023 -0.2583806,0.9813137 0,0.00217 -0.084251,0.00394 -0.1872246,0.00394 H 4.5725987 L 4.5382854,5.5293514 C 4.519413,5.4520685 4.4782788,5.2835623 4.446876,5.1548931 4.414303,5.0214293 4.3876935,4.9248667 4.3849222,4.9300702 4.3822522,4.9350902 4.3404162,5.103593 4.2919582,5.3045285 L 4.2038515,5.6698657 H 4.0176384 3.8314253 L 3.8168889,5.6153131 C 3.808894,5.5853092 3.7448768,5.3405663 3.6746287,5.07144 L 3.5469048,4.5821195 3.709267,4.5803482 c 0.089299,-9.762e-4 0.1643539,5.138e-4 0.1667884,0.00331 0.00243,0.00279 0.044183,0.170967 0.092774,0.3737209 0.048591,0.202754 0.090086,0.3686435 0.092212,0.3686435 0.00212,0 0.04363,-0.1644017 0.092232,-0.3653372 0.048602,-0.2009355 0.089696,-0.3690568 0.091319,-0.3736029 0.00224,-0.00626 0.037175,-0.00826 0.1441568,-0.00826 h 0.1412051 l 0.00632,0.024797 c 0.00348,0.013638 0.04439,0.1816277 0.090917,0.3733102 0.046528,0.1916824 0.085949,0.3471603 0.087603,0.3455062 0.00165,-0.00165 0.043569,-0.1688997 0.093145,-0.3716572 L 4.8980773,4.582129 5.2201214,4.580419 5.5421653,4.578709 v 0.07894 0.07894 l 0.054555,-0.0543 c 0.093922,-0.093472 0.189417,-0.1280735 0.3355813,-0.1215948 0.1203687,0.00534 0.2007983,0.041412 0.2836683,0.1272374 0.079546,0.082384 0.1310997,0.1922267 0.1466049,0.3123669 0.015484,0.1199717 0.018021,0.098435 0.01869,-0.1586277 l 6.83e-4,-0.2628444 h 0.165311 0.1653109 V 5.1243395 5.6698657 H 6.5472581 6.3819471 L 6.381153,5.4070213 C 6.3807033,5.2582077 6.378093,5.1556517 6.375143,5.1706266 6.372273,5.1851736 6.365263,5.2274896 6.359563,5.2646606 6.337913,5.4058727 6.274018,5.520182 6.1694732,5.6047296 6.0963272,5.6638846 6.0133941,5.6909476 5.9057336,5.6907936 5.7777975,5.6906106 5.6860616,5.65385 5.5971951,5.5671568 l -0.055028,-0.053682 v 0.2864873 0.2864873 h -0.165311 -0.165311 z m 0.6647512,0.03885 c 0.092405,-0.041169 0.135555,-0.1350994 0.135555,-0.2950814 0,-0.2114626 -0.077004,-0.3118162 -0.2380478,-0.3102316 -0.092617,9.077e-4 -0.154536,0.039038 -0.1949314,0.1200295 -0.046065,0.092358 -0.048143,0.2719209 -0.00432,0.3734969 0.024725,0.057313 0.084509,0.1095406 0.143048,0.1249689 0.037216,0.00981 0.1231088,0.00267 0.1586985,-0.013183 z"
       id="path76"
       sodipodi:nodetypes="cccssscccccccsscscssscscccccssccccscssscccccsssssssssscssscsssccccccssssscccscsssscsscccccccccssscccsccsscsscsscsscsssscccsscccsssssccsssccccccsssscccccccsscssscccccssscsssss" />
  </g>
</svg>
